<?xml version="1.0" standalone="no"?><!DOCTYPE svg PUBLIC "-//W3C//DTD SVG 1.1//EN" "http://www.w3.org/Graphics/SVG/1.1/DTD/svg11.dtd"><svg class="icon" style="" viewBox="0 0 1025 1024" version="1.1" xmlns="http://www.w3.org/2000/svg" p-id="2331" xmlns:xlink="http://www.w3.org/1999/xlink" width="32.03125" height="32"><defs><style type="text/css"><![CDATA[

]]></style></defs><path d="M256.02048 192.67584l0-96.6656c0-52.92032-43.06944-96.01024-96.01024-96.01024s-96.01024 43.06944-96.01024 96.01024l0 96.6656c-38.64576 29.2864-64 75.14112-64 127.32416s25.35424 98.05824 64 127.26272l0 480.72704c0 52.92032 43.06944 96.01024 96.01024 96.01024s96.01024-43.06944 96.01024-96.01024l0-480.72704c38.66624-29.184 64-75.07968 64-127.26272s-25.33376-98.03776-64-127.32416zM128.02048 96.01024c0-17.69472 14.29504-32.01024 32.01024-32.01024s32.01024 14.29504 32.01024 32.01024l0 67.19488c-10.3424-2.08896-21.03296-3.19488-32.01024-3.19488s-21.66784 1.1264-32.01024 3.19488l0-67.19488zM192.02048 928.01024c0 17.69472-14.29504 32.01024-32.01024 32.01024s-32.01024-14.29504-32.01024-32.01024l0-451.25632c10.3424 2.1504 21.03296 3.25632 32.01024 3.25632s21.66784-1.1264 32.01024-3.25632l0 451.25632zM251.6992 346.89024c-0.512 1.69984-0.96256 3.35872-1.57696 5.05856-3.03104 8.43776-6.94272 16.44544-12.10368 23.552-0.12288 0.18432-0.32768 0.32768-0.45056 0.512-5.57056 7.61856-12.1856 14.37696-19.72224 20.0704-0.12288 0.12288-0.22528 0.18432-0.32768 0.24576-7.72096 5.81632-16.32256 10.48576-25.55904 13.76256-10.01472 3.62496-20.66432 5.91872-31.96928 5.91872s-21.95456-2.29376-32.01024-5.95968c-9.25696-3.25632-17.85856-7.92576-25.55904-13.76256-0.1024-0.06144-0.18432-0.12288-0.32768-0.24576-7.51616-5.69344-14.15168-12.45184-19.72224-20.0704-0.12288-0.18432-0.32768-0.32768-0.45056-0.512-5.16096-7.12704-9.05216-15.13472-12.10368-23.552-0.6144-1.69984-1.06496-3.35872-1.57696-5.05856-2.51904-8.54016-4.28032-17.46944-4.28032-26.84928 0-9.44128 1.76128-18.37056 4.32128-26.95168 0.512-1.69984 0.96256-3.35872 1.57696-4.99712 3.01056-8.43776 6.92224-16.44544 12.10368-23.61344 0.12288-0.18432 0.32768-0.32768 0.45056-0.512 5.57056-7.55712 12.1856-14.37696 19.72224-20.0704 0.12288-0.06144 0.22528-0.18432 0.32768-0.24576 7.68-5.7344 16.2816-10.42432 25.53856-13.7216 10.05568-3.584 20.70528-5.89824 32.01024-5.89824s21.95456 2.31424 32.01024 5.89824c9.25696 3.31776 17.85856 8.00768 25.55904 13.76256 0.1024 0.06144 0.18432 0.18432 0.32768 0.26624 7.51616 5.69344 14.15168 12.51328 19.72224 20.0704 0.12288 0.18432 0.32768 0.32768 0.45056 0.512 5.16096 7.12704 9.05216 15.13472 12.06272 23.59296 0.6144 1.6384 1.08544 3.29728 1.57696 4.99712 2.56 8.58112 4.32128 17.5104 4.32128 26.95168 0 9.37984-1.76128 18.30912-4.32128 26.89024zM960.02048 192.67584l0-96.6656c0-52.92032-43.06944-96.01024-96.01024-96.01024s-96.01024 43.06944-96.01024 96.01024l0 96.6656c-38.68672 29.2864-64 75.14112-64 127.32416s25.31328 98.05824 64 127.26272l0 480.72704c0 52.92032 43.06944 96.01024 96.01024 96.01024s96.01024-43.06944 96.01024-96.01024l0-480.72704c38.62528-29.184 64-75.07968 64-127.26272s-25.37472-98.03776-64-127.32416zM832.02048 96.01024c0-17.69472 14.29504-32.01024 32.01024-32.01024s32.01024 14.29504 32.01024 32.01024l0 67.19488c-10.36288-2.08896-21.05344-3.19488-32.01024-3.19488-11.01824 0-21.68832 1.1264-32.01024 3.19488l0-67.19488zM896.02048 928.01024c0 17.69472-14.29504 32.01024-32.01024 32.01024s-32.01024-14.29504-32.01024-32.01024l0-451.25632c10.30144 2.1504 20.992 3.25632 32.01024 3.25632 10.93632 0 21.62688-1.1264 32.01024-3.25632l0 451.25632zM955.6992 346.89024c-0.512 1.69984-0.98304 3.35872-1.57696 5.05856-3.072 8.43776-6.94272 16.44544-12.12416 23.552-0.12288 0.18432-0.32768 0.32768-0.45056 0.512-5.57056 7.61856-12.1856 14.37696-19.68128 20.0704-0.12288 0.12288-0.26624 0.18432-0.32768 0.24576-7.74144 5.81632-16.32256 10.48576-25.55904 13.76256-10.01472 3.62496-20.70528 5.91872-31.96928 5.91872-11.32544 0-21.95456-2.29376-32.01024-5.95968-9.25696-3.25632-17.87904-7.92576-25.55904-13.76256-0.12288-0.06144-0.18432-0.12288-0.32768-0.24576-7.55712-5.69344-14.17216-12.45184-19.74272-20.0704-0.12288-0.18432-0.32768-0.32768-0.45056-0.512-5.12-7.12704-9.05216-15.13472-12.06272-23.552-0.63488-1.69984-1.06496-3.35872-1.57696-5.05856-2.51904-8.54016-4.28032-17.46944-4.28032-26.84928 0-9.44128 1.76128-18.37056 4.32128-26.95168 0.512-1.69984 0.9216-3.35872 1.57696-4.99712 3.01056-8.43776 6.94272-16.44544 12.06272-23.61344 0.12288-0.18432 0.32768-0.32768 0.45056-0.512 5.57056-7.55712 12.1856-14.37696 19.74272-20.0704 0.12288-0.06144 0.18432-0.18432 0.32768-0.24576 7.68-5.75488 16.32256-10.42432 25.55904-13.76256 10.01472-3.54304 20.64384-5.85728 31.96928-5.85728 11.264 0 21.95456 2.31424 32.01024 5.87776 9.25696 3.33824 17.8176 8.00768 25.55904 13.76256 0.06144 0.06144 0.18432 0.18432 0.32768 0.26624 7.49568 5.69344 14.11072 12.51328 19.68128 20.0704 0.12288 0.18432 0.32768 0.32768 0.45056 0.512 5.18144 7.20896 9.05216 15.19616 12.12416 23.61344 0.57344 1.6384 1.06496 3.31776 1.57696 4.99712 2.51904 8.54016 4.28032 17.46944 4.28032 26.91072 0 9.37984-1.76128 18.30912-4.32128 26.89024zM608.03072 576.67584l0-480.6656c0-52.92032-43.06944-96.01024-96.01024-96.01024s-96.01024 43.06944-96.01024 96.01024l0 480.6656c-38.64576 29.24544-64 75.14112-64 127.32416s25.35424 98.05824 64 127.26272l0 96.72704c0 52.92032 43.06944 96.01024 96.01024 96.01024s96.01024-43.06944 96.01024-96.01024l0-96.72704c38.62528-29.184 64-75.07968 64-127.26272s-25.37472-98.05824-64-127.32416zM480.03072 96.01024c0-17.69472 14.29504-32.01024 32.01024-32.01024s32.01024 14.29504 32.01024 32.01024l0 451.19488c-10.36288-2.048-21.05344-3.19488-32.01024-3.19488-10.97728 0-21.66784 1.1264-32.01024 3.19488l0-451.19488zM544.03072 928.01024c0 17.69472-14.29504 32.01024-32.01024 32.01024s-32.01024-14.29504-32.01024-32.01024l0-67.25632c10.3424 2.1504 21.03296 3.25632 32.01024 3.25632 10.93632 0 21.62688-1.1264 32.01024-3.25632l0 67.25632zM603.70944 730.89024c-0.512 1.69984-0.98304 3.35872-1.57696 5.05856-3.072 8.43776-6.94272 16.44544-12.12416 23.552-0.12288 0.18432-0.32768 0.32768-0.45056 0.512-5.57056 7.61856-12.1856 14.37696-19.68128 20.0704-0.12288 0.12288-0.24576 0.18432-0.32768 0.26624-7.74144 5.81632-16.32256 10.48576-25.55904 13.76256-10.01472 3.62496-20.70528 5.91872-31.96928 5.91872-11.30496 0-21.95456-2.29376-32.01024-5.95968-9.25696-3.25632-17.85856-7.94624-25.55904-13.76256-0.1024-0.06144-0.18432-0.12288-0.32768-0.24576-7.51616-5.69344-14.15168-12.45184-19.70176-20.0704-0.12288-0.18432-0.32768-0.32768-0.45056-0.512-5.16096-7.12704-9.05216-15.13472-12.10368-23.552-0.6144-1.69984-1.06496-3.35872-1.57696-5.05856-2.51904-8.54016-4.28032-17.46944-4.28032-26.84928 0-9.44128 1.76128-18.37056 4.32128-26.95168 0.512-1.69984 0.96256-3.35872 1.57696-4.99712 3.03104-8.45824 6.94272-16.44544 12.10368-23.61344 0.12288-0.18432 0.32768-0.32768 0.45056-0.512 5.57056-7.55712 12.1856-14.37696 19.70176-20.0704 0.12288-0.06144 0.22528-0.18432 0.32768-0.24576 7.72096-5.75488 16.32256-10.42432 25.55904-13.76256 10.01472-3.54304 20.66432-5.85728 31.96928-5.85728 11.264 0 21.95456 2.31424 32.01024 5.89824 9.25696 3.31776 17.8176 8.00768 25.55904 13.76256 0.06144 0.06144 0.18432 0.18432 0.32768 0.24576 7.49568 5.69344 14.11072 12.51328 19.68128 20.0704 0.12288 0.18432 0.32768 0.32768 0.45056 0.512 5.18144 7.20896 9.05216 15.19616 12.12416 23.61344 0.57344 1.6384 1.06496 3.33824 1.57696 4.99712 2.51904 8.54016 4.28032 17.46944 4.28032 26.91072 0 9.37984-1.76128 18.30912-4.32128 26.89024z" p-id="2332" fill="#e6e6e6"></path></svg>